<svg version="1.1" xmlns="http://www.w3.org/2000/svg" xmlns:xlink="http://www.w3.org/1999/xlink" viewBox="0 0 172 172"><g fill="none" fill-rule="nonzero" stroke="none" stroke-width="1" stroke-linecap="butt" stroke-linejoin="miter" stroke-miterlimit="10" stroke-dasharray="" stroke-dashoffset="0" font-family="none" font-weight="none" font-size="none" text-anchor="none" style="mix-blend-mode: normal"><path d="M0,172v-172h172v172z" fill="none"></path><g fill="#17bbfd"><path d="M21.5,5.375c-8.90191,0.00889 -16.11611,7.22309 -16.125,16.125v64.5h5.375v-64.5c0,-5.93706 4.81294,-10.75 10.75,-10.75h129c5.93706,0 10.75,4.81294 10.75,10.75v64.5h5.375v-64.5c-0.00889,-8.90191 -7.22309,-16.11611 -16.125,-16.125zM43,21.5v5.375h5.375v-5.375zM53.75,21.5v5.375h59.125v-5.375zM118.25,21.5v5.375h21.5v-5.375zM43,32.25v5.375h96.75v-5.375zM150.5,40.3125v5.375h5.375v-5.375zM43,43v5.375h16.125v-5.375zM64.5,43v5.375h37.625v-5.375zM107.5,43v5.375h32.25v-5.375zM23.95129,45.69275c-4.35825,0.12774 -7.82533,3.69713 -7.82629,8.05725v10.75c0,4.4528 3.6097,8.0625 8.0625,8.0625c4.4528,0 8.0625,-3.6097 8.0625,-8.0625v-10.75c-0.00048,-2.17896 -0.88289,-4.26495 -2.44623,-5.78279c-1.56333,-1.51785 -3.67446,-2.3383 -5.85248,-2.27446zM24.26624,51.0625c1.45343,0.0426 2.60939,1.23345 2.60876,2.6875v10.75c0,1.48427 -1.20323,2.6875 -2.6875,2.6875c-1.48427,0 -2.6875,-1.20323 -2.6875,-2.6875v-10.75c-0.00031,-0.72662 0.29362,-1.42241 0.81478,-1.92874c0.52116,-0.50633 1.22514,-0.78005 1.95145,-0.75876zM150.5,51.0625v16.125h5.375v-16.125zM43,53.75v5.375h96.75v-5.375zM43,64.5v5.375h96.75v-5.375zM43,75.25v5.375h10.75v-5.375zM13.4375,91.375c-4.4528,0 -8.0625,3.6097 -8.0625,8.0625v48.375c0,4.4528 3.6097,8.0625 8.0625,8.0625h5.375v-5.375h-5.375c-1.48427,0 -2.6875,-1.20323 -2.6875,-2.6875v-48.375c0,-1.48427 1.20323,-2.6875 2.6875,-2.6875h145.125c1.48427,0 2.6875,1.20323 2.6875,2.6875v48.375c0,1.48427 -1.20323,2.6875 -2.6875,2.6875h-5.375v5.375h5.375c4.4528,0 8.0625,-3.6097 8.0625,-8.0625v-48.375c0,-4.4528 -3.6097,-8.0625 -8.0625,-8.0625zM24.1875,102.125v5.375h5.375v-5.375zM34.9375,102.125v5.375h5.375v-5.375zM45.6875,102.125v5.375h5.375v-5.375zM56.4375,102.125v5.375h5.375v-5.375zM67.1875,102.125v5.375h5.375v-5.375zM77.9375,102.125v5.375h5.375v-5.375zM88.6875,102.125v5.375h5.375v-5.375zM99.4375,102.125v5.375h5.375v-5.375zM110.1875,102.125v5.375h5.375v-5.375zM120.9375,102.125v5.375h5.375v-5.375zM131.6875,102.125v5.375h5.375v-5.375zM142.4375,102.125v5.375h5.375v-5.375zM24.1875,112.875v5.375h5.375v-5.375zM34.9375,112.875v5.375h5.375v-5.375zM67.1875,112.875v5.375h5.375v-5.375zM77.9375,112.875v5.375h5.375v-5.375zM88.6875,112.875v5.375h5.375v-5.375zM99.4375,112.875v5.375h5.375v-5.375zM131.6875,112.875v5.375h5.375v-5.375zM142.4375,112.875v5.375h5.375v-5.375zM53.76575,115.56775c-2.75628,-0.00473 -5.32397,1.39889 -6.80798,3.72156c-2.4962,-1.40646 -5.55129,-1.38252 -8.02514,0.0629c-2.47384,1.44542 -3.99475,4.09514 -3.99513,6.9603v3.14941c-2.46754,-0.87241 -5.20502,-0.49279 -7.34206,1.01816c-2.13703,1.51095 -3.40768,3.9652 -3.40794,6.58243v26.875c0,1.48427 1.20323,2.6875 2.6875,2.6875h53.75c1.48427,0 2.6875,-1.20323 2.6875,-2.6875v-24.1875c0,-4.4528 -3.6097,-8.0625 -8.0625,-8.0625c-0.91552,0.00073 -1.82427,0.15692 -2.6875,0.46191v-5.83691c-0.00037,-2.86516 -1.52128,-5.51488 -3.99513,-6.9603c-2.47384,-1.44542 -5.52894,-1.46936 -8.02514,-0.0629c-1.47798,-2.31325 -4.0314,-3.71555 -6.77649,-3.72156zM118.26575,115.56775c-2.75628,-0.00473 -5.32397,1.39889 -6.80798,3.72156c-2.4962,-1.40646 -5.55129,-1.38252 -8.02514,0.0629c-2.47384,1.44542 -3.99475,4.09514 -3.99513,6.9603v5.83691c-2.46754,-0.87241 -5.20502,-0.49279 -7.34206,1.01816c-2.13703,1.51095 -3.40768,3.9652 -3.40794,6.58243v24.1875c0,1.48427 1.20323,2.6875 2.6875,2.6875h53.75c1.48427,0 2.6875,-1.20323 2.6875,-2.6875v-26.875c0,-4.4528 -3.6097,-8.0625 -8.0625,-8.0625c-0.91556,0.00026 -1.82439,0.15647 -2.6875,0.46191v-3.14941c-0.00037,-2.86516 -1.52128,-5.51488 -3.99513,-6.9603c-2.47384,-1.44542 -5.52894,-1.46936 -8.02514,-0.0629c-1.47798,-2.31325 -4.0314,-3.71555 -6.77649,-3.72156zM53.82874,120.9375c1.45343,0.0426 2.60939,1.23345 2.60876,2.6875v21.5c0,1.48427 1.20323,2.6875 2.6875,2.6875c1.48427,0 2.6875,-1.20323 2.6875,-2.6875v-18.8125c0,-1.48427 1.20323,-2.6875 2.6875,-2.6875c1.48427,0 2.6875,1.20323 2.6875,2.6875v24.1875c0,1.48427 1.20323,2.6875 2.6875,2.6875c1.48427,0 2.6875,-1.20323 2.6875,-2.6875v-10.75c0,-1.48427 1.20323,-2.6875 2.6875,-2.6875c1.48427,0 2.6875,1.20323 2.6875,2.6875v21.5h-48.375v-24.1875c0,-1.48427 1.20323,-2.6875 2.6875,-2.6875c1.48427,0 2.6875,1.20323 2.6875,2.6875v8.0625c0,1.48427 1.20323,2.6875 2.6875,2.6875c1.48427,0 2.6875,-1.20323 2.6875,-2.6875v-18.8125c0,-1.48427 1.20323,-2.6875 2.6875,-2.6875c1.48427,0 2.6875,1.20323 2.6875,2.6875v18.8125c0,1.48427 1.20323,2.6875 2.6875,2.6875c1.48427,0 2.6875,-1.20323 2.6875,-2.6875v-21.5c-0.00031,-0.72662 0.29362,-1.42241 0.81478,-1.92874c0.52116,-0.50633 1.22514,-0.78005 1.95145,-0.75876zM118.32874,120.9375c1.45343,0.0426 2.60939,1.23345 2.60876,2.6875v21.5c0,1.48427 1.20323,2.6875 2.6875,2.6875c1.48427,0 2.6875,-1.20323 2.6875,-2.6875v-18.8125c0,-1.48427 1.20323,-2.6875 2.6875,-2.6875c1.48427,0 2.6875,1.20323 2.6875,2.6875v18.8125c0,1.48427 1.20323,2.6875 2.6875,2.6875c1.48427,0 2.6875,-1.20323 2.6875,-2.6875v-8.0625c0,-1.48427 1.20323,-2.6875 2.6875,-2.6875c1.48427,0 2.6875,1.20323 2.6875,2.6875v24.1875h-48.375v-21.5c0,-1.48427 1.20323,-2.6875 2.6875,-2.6875c1.48427,0 2.6875,1.20323 2.6875,2.6875v10.75c0,1.48427 1.20323,2.6875 2.6875,2.6875c1.48427,0 2.6875,-1.20323 2.6875,-2.6875v-24.1875c0,-1.48427 1.20323,-2.6875 2.6875,-2.6875c1.48427,0 2.6875,1.20323 2.6875,2.6875v18.8125c0,1.48427 1.20323,2.6875 2.6875,2.6875c1.48427,0 2.6875,-1.20323 2.6875,-2.6875v-21.5c-0.00031,-0.72662 0.29362,-1.42241 0.81478,-1.92874c0.52116,-0.50633 1.22514,-0.78005 1.95145,-0.75876zM77.9375,123.625v5.375h5.375v-5.375zM88.6875,123.625v5.375h5.375v-5.375z"></path></g></g></svg>